<svg width="27" height="27" viewBox="0 0 27 27" fill="none" xmlns="http://www.w3.org/2000/svg">
<path d="M7.50995 9.28634C5.17257 9.92773 3.74695 12.2394 4.15936 13.8178C4.57259 15.3967 6.13278 13.5984 8.47016 12.9566C10.8067 12.3144 13.0348 13.0729 12.6224 11.4941C12.2096 9.9153 9.84733 8.64413 7.50995 9.28634ZM5.70091 8.55055C6.40523 8.28887 6.49508 6.72164 6.11994 5.66495C5.7448 4.60909 4.86947 3.96605 4.16515 4.22857C3.46125 4.4915 3.19459 5.56061 3.56973 6.61647C3.94487 7.67274 4.99618 8.81348 5.70091 8.55055ZM8.57451 7.73526C9.32106 7.66819 9.80303 6.1788 9.70738 5.05835C9.61215 3.93873 8.92936 3.08617 8.1828 3.15201C7.43625 3.2195 6.9079 4.18137 7.00355 5.30099C7.09961 6.42062 7.82712 7.80234 8.57451 7.73526V7.73526ZM11.8746 4.45837C11.1255 4.45837 10.5185 5.36931 10.5185 6.49308C10.5185 7.61767 11.126 9.0582 11.8746 9.0582C12.624 9.0582 13.2311 7.61767 13.2311 6.49308C13.2315 5.3689 12.624 4.45837 11.8746 4.45837ZM1.37396 7.34149C0.724709 7.72491 0.642724 8.82549 1.19219 9.79937C1.7404 10.7724 2.96976 11.709 3.61859 11.3252C4.26784 10.9414 4.09104 9.38199 3.5424 8.40894C2.99377 7.43507 2.02238 6.95766 1.37396 7.34149ZM18.9911 18.6876C16.6537 18.0454 14.2906 19.317 13.8782 20.8954C13.465 22.4742 15.6939 21.7157 18.0309 22.3579C20.3682 22.9997 21.928 24.798 22.3404 23.2191C22.7537 21.6407 21.3276 19.3294 18.9911 18.6876V18.6876ZM20.8001 17.9531C21.5036 18.2148 22.5557 17.074 22.9309 16.0178C23.306 14.9615 23.0394 13.8924 22.3355 13.6299C21.6311 13.3669 20.7566 14.0104 20.3815 15.0667C20.0064 16.1229 20.0958 17.6902 20.8001 17.9531ZM17.9269 17.1361C18.6735 17.2032 19.4014 15.8219 19.4966 14.7023C19.5919 13.5827 19.0648 12.6204 18.3182 12.5533C17.5717 12.487 16.8893 13.34 16.7928 14.4601C16.6976 15.5801 17.1804 17.0691 17.9269 17.1361ZM14.6256 18.4595C15.3755 18.4595 15.9825 17.019 15.9825 15.8944C15.9825 14.7706 15.3751 13.8597 14.6256 13.8597C13.8762 13.8597 13.2687 14.7706 13.2687 15.8952C13.2687 17.019 13.877 18.4595 14.6256 18.4595ZM25.1267 16.7428C24.4774 16.3589 23.5068 16.8364 22.9586 17.8098C22.4108 18.7833 22.2336 20.3426 22.8816 20.7265C23.5309 21.1103 24.7602 20.1737 25.3084 19.2007C25.8566 18.2272 25.7751 17.1266 25.1267 16.7428" fill="white"/>
</svg>
